<?xml version="1.0" encoding="UTF-8" standalone="no"?>
<!DOCTYPE svg PUBLIC "-//W3C//DTD SVG 1.1//EN"
 "http://www.w3.org/Graphics/SVG/1.1/DTD/svg11.dtd">
<!-- Generated by graphviz version 14.1.3 (20260303.0454)
 -->
<!-- Title: Classes Pages: 1 -->
<svg width="801pt" height="1087pt"
 viewBox="0.00 0.00 801.00 1087.00" xmlns="http://www.w3.org/2000/svg" xmlns:xlink="http://www.w3.org/1999/xlink">
<g id="graph0" class="graph" transform="scale(1 1) rotate(0) translate(18 1068.8)">
<title>Classes</title>
<polygon fill="white" stroke="none" points="-18,18 -18,-1068.8 782.99,-1068.8 782.99,18 -18,18"/>
<!-- Controller -->
<g id="node1" class="node">
<title>Controller</title>
<polygon fill="none" stroke="black" points="225,-1017 225,-1049.8 562.81,-1049.8 562.81,-1017 225,-1017"/>
<text xml:space="preserve" text-anchor="start" x="341.01" y="-1030.2" font-family="Arial" font-weight="bold" font-size="14.00">DemoController</text>
<polygon fill="none" stroke="black" points="225,-984.2 225,-1017 562.81,-1017 562.81,-984.2 225,-984.2"/>
<text xml:space="preserve" text-anchor="start" x="233" y="-995" font-family="Arial" font-size="14.00">&#45; acervo : Acervo</text>
<polygon fill="none" stroke="black" points="225,-800.2 225,-984.2 562.81,-984.2 562.81,-800.2 225,-800.2"/>
<text xml:space="preserve" text-anchor="start" x="233" y="-962.2" font-family="Arial" font-size="14.00">+ listaCandidatos()</text>
<text xml:space="preserve" text-anchor="start" x="233" y="-945.4" font-family="Arial" font-size="14.00">+ listaCandidatosLocalidadeSituacao(cep, situacao)</text>
<text xml:space="preserve" text-anchor="start" x="233" y="-928.6" font-family="Arial" font-size="14.00">+ cadCandidato(payload)</text>
<text xml:space="preserve" text-anchor="start" x="233" y="-911.8" font-family="Arial" font-size="14.00">+ cadVoto(payload)</text>
<text xml:space="preserve" text-anchor="start" x="233" y="-895" font-family="Arial" font-size="14.00">+ consultaEleito(cep)</text>
<text xml:space="preserve" text-anchor="start" x="233" y="-878.2" font-family="Arial" font-size="14.00">+ consultaCandidato(numero)</text>
<text xml:space="preserve" text-anchor="start" x="233" y="-861.4" font-family="Arial" font-size="14.00">+ consultaLocalidade(cep)</text>
<text xml:space="preserve" text-anchor="start" x="233" y="-844.6" font-family="Arial" font-size="14.00">+ listaMaisVotadosPartido()</text>
<text xml:space="preserve" text-anchor="start" x="233" y="-827.8" font-family="Arial" font-size="14.00">+ atualizaCandidato(numero, status)</text>
<text xml:space="preserve" text-anchor="start" x="233" y="-811" font-family="Arial" font-size="14.00">+ removeCandidato(numero)</text>
<polygon fill="none" stroke="black" points="224,-799.2 224,-1050.8 563.81,-1050.8 563.81,-799.2 224,-799.2"/>
</g>
<!-- Acervo -->
<g id="node3" class="node">
<title>Acervo</title>
<polygon fill="none" stroke="black" points="222.67,-711 222.67,-743.8 565.15,-743.8 565.15,-711 222.67,-711"/>
<text xml:space="preserve" text-anchor="start" x="321.57" y="-724.2" font-family="Arial" font-weight="bold" font-size="14.00">«Component» Acervo</text>
<polygon fill="none" stroke="black" points="222.67,-627.8 222.67,-711 565.15,-711 565.15,-627.8 222.67,-627.8"/>
<text xml:space="preserve" text-anchor="start" x="230.67" y="-689" font-family="Arial" font-size="14.00">&#45; partidos : List&lt;Partido&gt;</text>
<text xml:space="preserve" text-anchor="start" x="230.67" y="-672.2" font-family="Arial" font-size="14.00">&#45; localidades : List&lt;Localidade&gt;</text>
<text xml:space="preserve" text-anchor="start" x="230.67" y="-655.4" font-family="Arial" font-size="14.00">&#45; candidatos : List&lt;Candidato&gt;</text>
<text xml:space="preserve" text-anchor="start" x="230.67" y="-638.6" font-family="Arial" font-size="14.00">&#45; votos : List&lt;Voto&gt;</text>
<polygon fill="none" stroke="black" points="222.67,-376.6 222.67,-627.8 565.15,-627.8 565.15,-376.6 222.67,-376.6"/>
<text xml:space="preserve" text-anchor="start" x="230.67" y="-605.8" font-family="Arial" font-size="14.00">+ buscarCandidato(numero)</text>
<text xml:space="preserve" text-anchor="start" x="230.67" y="-589" font-family="Arial" font-size="14.00">+ buscarPartido(codigo)</text>
<text xml:space="preserve" text-anchor="start" x="230.67" y="-572.2" font-family="Arial" font-size="14.00">+ buscarLocalidade(cep)</text>
<text xml:space="preserve" text-anchor="start" x="230.67" y="-555.4" font-family="Arial" font-size="14.00">+ ehVotoValido(voto) : boolean</text>
<text xml:space="preserve" text-anchor="start" x="230.67" y="-538.6" font-family="Arial" font-size="14.00">+ listarCandidatos()</text>
<text xml:space="preserve" text-anchor="start" x="230.67" y="-521.8" font-family="Arial" font-size="14.00">+ listarCandidatosLocalidadeSituacao(cep, situacao)</text>
<text xml:space="preserve" text-anchor="start" x="230.67" y="-505" font-family="Arial" font-size="14.00">+ cadastrarCandidato(payload)</text>
<text xml:space="preserve" text-anchor="start" x="230.67" y="-488.2" font-family="Arial" font-size="14.00">+ cadastrarVoto(payload)</text>
<text xml:space="preserve" text-anchor="start" x="230.67" y="-471.4" font-family="Arial" font-size="14.00">+ consultarEleito(cep)</text>
<text xml:space="preserve" text-anchor="start" x="230.67" y="-454.6" font-family="Arial" font-size="14.00">+ consultarCandidato(numero)</text>
<text xml:space="preserve" text-anchor="start" x="230.67" y="-437.8" font-family="Arial" font-size="14.00">+ consultarLocalidade(cep)</text>
<text xml:space="preserve" text-anchor="start" x="230.67" y="-421" font-family="Arial" font-size="14.00">+ listarMaisVotadosPartido()</text>
<text xml:space="preserve" text-anchor="start" x="230.67" y="-404.2" font-family="Arial" font-size="14.00">+ atualizarSituacao(numero, status)</text>
<text xml:space="preserve" text-anchor="start" x="230.67" y="-387.4" font-family="Arial" font-size="14.00">+ removerCandidato(numero)</text>
<polygon fill="none" stroke="black" points="221.67,-375.6 221.67,-744.8 566.15,-744.8 566.15,-375.6 221.67,-375.6"/>
</g>
<!-- Controller&#45;&gt;Acervo -->
<g id="edge2" class="edge">
<title>Controller&#45;&gt;Acervo</title>
<path fill="none" stroke="#444444" d="M393.91,-799.4C393.91,-785.26 393.91,-770.62 393.91,-755.86"/>
<polygon fill="#444444" stroke="#444444" points="397.41,-756.06 393.91,-746.06 390.41,-756.06 397.41,-756.06"/>
<text xml:space="preserve" text-anchor="middle" x="403.58" y="-768.4" font-family="Arial" font-size="12.00">usa</text>
</g>
<!-- Testes -->
<g id="node2" class="node">
<title>Testes</title>
<text xml:space="preserve" text-anchor="start" x="648.45" y="-962.4" font-family="Arial" font-weight="bold" font-size="14.00">«testes JUnit»</text>
<text xml:space="preserve" text-anchor="start" x="634.82" y="-929.2" font-family="Arial" font-size="14.00">CandidatoTests</text>
<text xml:space="preserve" text-anchor="start" x="634.82" y="-912.4" font-family="Arial" font-size="14.00">VotacaoTests</text>
<text xml:space="preserve" text-anchor="start" x="634.82" y="-895.6" font-family="Arial" font-size="14.00">ApuracaoTests</text>
<text xml:space="preserve" text-anchor="start" x="634.82" y="-878.8" font-family="Arial" font-size="14.00">EndpointsHttpTests</text>
<polygon fill="none" stroke="black" points="626.82,-868 626.82,-982 764.99,-982 764.99,-868 626.82,-868"/>
</g>
<!-- Testes&#45;&gt;Controller -->
<g id="edge1" class="edge">
<title>Testes:w&#45;&gt;Controller:e</title>
<path fill="none" stroke="#444444" stroke-dasharray="5,2" d="M626.82,-925C607.48,-925 624.65,-895.97 608.33,-885.6 598.57,-879.4 592.07,-879.4 582.31,-885.6 570.83,-892.89 575.91,-909.41 573.22,-918.57"/>
<polygon fill="#444444" stroke="#444444" points="571.35,-915.61 565.06,-924.15 575.29,-921.39 571.35,-915.61"/>
<text xml:space="preserve" text-anchor="middle" x="595.32" y="-889.2" font-family="Arial" font-size="12.00">testa</text>
</g>
<!-- Partido -->
<g id="node4" class="node">
<title>Partido</title>
<polygon fill="none" stroke="black" points="1,-275.6 1,-308.4 108.81,-308.4 108.81,-275.6 1,-275.6"/>
<text xml:space="preserve" text-anchor="start" x="30.79" y="-288.8" font-family="Arial" font-weight="bold" font-size="14.00">Partido</text>
<polygon fill="none" stroke="black" points="1,-226 1,-275.6 108.81,-275.6 108.81,-226 1,-226"/>
<text xml:space="preserve" text-anchor="start" x="9" y="-253.6" font-family="Arial" font-size="14.00">&#45; codigo : int</text>
<text xml:space="preserve" text-anchor="start" x="9" y="-236.8" font-family="Arial" font-size="14.00">&#45; nome : String</text>
<polygon fill="none" stroke="black" points="0,-225 0,-309.4 109.81,-309.4 109.81,-225 0,-225"/>
</g>
<!-- Acervo&#45;&gt;Partido -->
<g id="edge7" class="edge">
<title>Acervo&#45;&gt;Partido</title>
<path fill="none" stroke="#444444" d="M212.15,-403.18C171.58,-368.35 131.95,-334.33 102.62,-309.16"/>
<polygon fill="none" stroke="#444444" points="212.13,-403.17 219.29,-404.04 221.24,-410.98 214.08,-410.11 212.13,-403.17"/>
<text xml:space="preserve" text-anchor="middle" x="93.62" y="-312.76" font-family="Arial" font-size="12.00">0..*</text>
<text xml:space="preserve" text-anchor="middle" x="218.59" y="-415.17" font-family="Arial" font-size="12.00">1</text>
</g>
<!-- Candidato -->
<g id="node5" class="node">
<title>Candidato</title>
<polygon fill="none" stroke="black" points="174.65,-300.8 174.65,-333.6 345.16,-333.6 345.16,-300.8 174.65,-300.8"/>
<text xml:space="preserve" text-anchor="start" x="225.69" y="-314" font-family="Arial" font-weight="bold" font-size="14.00">Candidato</text>
<polygon fill="none" stroke="black" points="174.65,-200.8 174.65,-300.8 345.16,-300.8 345.16,-200.8 174.65,-200.8"/>
<text xml:space="preserve" text-anchor="start" x="182.65" y="-278.8" font-family="Arial" font-size="14.00">~ numero : int</text>
<text xml:space="preserve" text-anchor="start" x="182.65" y="-262" font-family="Arial" font-size="14.00">~ nome : String</text>
<text xml:space="preserve" text-anchor="start" x="182.65" y="-245.2" font-family="Arial" font-size="14.00">~ situacao : String</text>
<text xml:space="preserve" text-anchor="start" x="182.65" y="-228.4" font-family="Arial" font-size="14.00">~ partido : Partido</text>
<text xml:space="preserve" text-anchor="start" x="182.65" y="-211.6" font-family="Arial" font-size="14.00">~ localidade : Localidade</text>
<polygon fill="none" stroke="black" points="173.65,-199.8 173.65,-334.6 346.16,-334.6 346.16,-199.8 173.65,-199.8"/>
</g>
<!-- Acervo&#45;&gt;Candidato -->
<g id="edge8" class="edge">
<title>Acervo&#45;&gt;Candidato</title>
<path fill="none" stroke="#444444" d="M304,-363.95C299.25,-353.64 294.68,-343.72 290.4,-334.41"/>
<polygon fill="none" stroke="#444444" points="304.03,-364.01 310.17,-367.79 309.05,-374.91 302.9,-371.14 304.03,-364.01"/>
<text xml:space="preserve" text-anchor="middle" x="281.39" y="-338.01" font-family="Arial" font-size="12.00">0..*</text>
<text xml:space="preserve" text-anchor="middle" x="312.76" y="-364.93" font-family="Arial" font-size="12.00">1</text>
</g>
<!-- Localidade -->
<g id="node6" class="node">
<title>Localidade</title>
<polygon fill="none" stroke="black" points="410.68,-284 410.68,-316.8 539.13,-316.8 539.13,-284 410.68,-284"/>
<text xml:space="preserve" text-anchor="start" x="438.34" y="-297.2" font-family="Arial" font-weight="bold" font-size="14.00">Localidade</text>
<polygon fill="none" stroke="black" points="410.68,-217.6 410.68,-284 539.13,-284 539.13,-217.6 410.68,-217.6"/>
<text xml:space="preserve" text-anchor="start" x="418.68" y="-262" font-family="Arial" font-size="14.00">~ cep : String</text>
<text xml:space="preserve" text-anchor="start" x="418.68" y="-245.2" font-family="Arial" font-size="14.00">~ nome : String</text>
<text xml:space="preserve" text-anchor="start" x="418.68" y="-228.4" font-family="Arial" font-size="14.00">~ qtdEleitores : int</text>
<polygon fill="none" stroke="black" points="409.68,-216.6 409.68,-317.8 540.13,-317.8 540.13,-216.6 409.68,-216.6"/>
</g>
<!-- Acervo&#45;&gt;Localidade -->
<g id="edge9" class="edge">
<title>Acervo&#45;&gt;Localidade</title>
<path fill="none" stroke="#444444" d="M448.38,-363.51C452.99,-346.94 457.33,-331.36 461.1,-317.79"/>
<polygon fill="none" stroke="#444444" points="448.44,-363.3 450.68,-370.15 445.22,-374.86 442.97,-368.01 448.44,-363.3"/>
<text xml:space="preserve" text-anchor="middle" x="452.1" y="-321.39" font-family="Arial" font-size="12.00">0..*</text>
<text xml:space="preserve" text-anchor="middle" x="444.98" y="-364.93" font-family="Arial" font-size="12.00">1</text>
</g>
<!-- Voto -->
<g id="node7" class="node">
<title>Voto</title>
<polygon fill="none" stroke="black" points="391.41,-125 391.41,-157.8 558.4,-157.8 558.4,-125 391.41,-125"/>
<text xml:space="preserve" text-anchor="start" x="459.35" y="-138.2" font-family="Arial" font-weight="bold" font-size="14.00">Voto</text>
<polygon fill="none" stroke="black" points="391.41,-8.2 391.41,-125 558.4,-125 558.4,-8.2 391.41,-8.2"/>
<text xml:space="preserve" text-anchor="start" x="399.41" y="-103" font-family="Arial" font-size="14.00">&#45; id : int</text>
<text xml:space="preserve" text-anchor="start" x="399.41" y="-86.2" font-family="Arial" font-size="14.00">&#45; hora : double</text>
<text xml:space="preserve" text-anchor="start" x="399.41" y="-69.4" font-family="Arial" font-size="14.00">&#45; candidato : Candidato</text>
<text xml:space="preserve" text-anchor="start" x="399.41" y="-52.6" font-family="Arial" font-size="14.00">&#45; localidade : Localidade</text>
<text xml:space="preserve" text-anchor="start" x="399.41" y="-35.8" font-family="Arial" font-size="14.00">&#45; numeroCandidato : int</text>
<text xml:space="preserve" text-anchor="start" x="399.41" y="-19" font-family="Arial" font-size="14.00">&#45; valido : boolean</text>
<polygon fill="none" stroke="black" points="390.41,-7.2 390.41,-158.8 559.4,-158.8 559.4,-7.2 390.41,-7.2"/>
</g>
<!-- Acervo&#45;&gt;Voto -->
<g id="edge10" class="edge">
<title>Acervo&#45;&gt;Voto</title>
<path fill="none" stroke="#444444" d="M544.56,-364.09C548.88,-354.37 552.7,-344.52 555.91,-334.6 574.32,-277.59 573.91,-256.94 555.91,-199.8 551.45,-185.64 544.57,-171.71 536.67,-158.68"/>
<polygon fill="none" stroke="#444444" points="544.52,-364.19 545.61,-371.32 539.45,-375.07 538.36,-367.94 544.52,-364.19"/>
<text xml:space="preserve" text-anchor="middle" x="527.66" y="-162.28" font-family="Arial" font-size="12.00">0..*</text>
<text xml:space="preserve" text-anchor="middle" x="539.06" y="-365.09" font-family="Arial" font-size="12.00">1</text>
</g>
<!-- Partido&#45;&gt;Candidato -->
<g id="edge3" class="edge">
<title>Partido:e&#45;&gt;Candidato:w</title>
<path fill="none" stroke="#444444" d="M109.81,-267.2C138.19,-267.2 145.28,-267.2 173.65,-267.2"/>
<text xml:space="preserve" text-anchor="middle" x="155.53" y="-272.05" font-family="Arial" font-size="12.00">0..*</text>
<text xml:space="preserve" text-anchor="middle" x="127.94" y="-255.15" font-family="Arial" font-size="12.00">1</text>
</g>
<!-- Candidato&#45;&gt;Localidade -->
<g id="edge4" class="edge">
<title>Candidato:e&#45;&gt;Localidade:w</title>
<path fill="none" stroke="#444444" d="M346.16,-267.2C374.39,-267.2 381.45,-267.2 409.68,-267.2"/>
<text xml:space="preserve" text-anchor="middle" x="391.55" y="-272.05" font-family="Arial" font-size="12.00">1</text>
<text xml:space="preserve" text-anchor="middle" x="364.29" y="-255.15" font-family="Arial" font-size="12.00">0..*</text>
</g>
<!-- Candidato&#45;&gt;Voto -->
<g id="edge5" class="edge">
<title>Candidato&#45;&gt;Voto</title>
<path fill="none" stroke="#444444" d="M338.13,-199.91C355.18,-185.46 373.3,-170.11 390.57,-155.47"/>
<text xml:space="preserve" text-anchor="middle" x="381.57" y="-159.07" font-family="Arial" font-size="12.00">0..*</text>
<text xml:space="preserve" text-anchor="middle" x="328.13" y="-189.11" font-family="Arial" font-size="12.00">0..1</text>
</g>
<!-- Localidade&#45;&gt;Voto -->
<g id="edge6" class="edge">
<title>Localidade&#45;&gt;Voto</title>
<path fill="none" stroke="#444444" d="M474.91,-216.89C474.91,-198.98 474.91,-178.31 474.91,-158.69"/>
<text xml:space="preserve" text-anchor="middle" x="465.9" y="-162.29" font-family="Arial" font-size="12.00">0..*</text>
<text xml:space="preserve" text-anchor="middle" x="474.91" y="-206.09" font-family="Arial" font-size="12.00">1</text>
</g>
</g>
</svg>
