<?xml version="1.0" encoding="UTF-8" standalone="no"?>
<!DOCTYPE svg PUBLIC "-//W3C//DTD SVG 1.1//EN"
 "http://www.w3.org/Graphics/SVG/1.1/DTD/svg11.dtd">
<!-- Generated by graphviz version 14.1.3 (20260303.0454)
 -->
<!-- Title: Estados Pages: 1 -->
<svg width="1222pt" height="334pt"
 viewBox="0.00 0.00 1222.00 334.00" xmlns="http://www.w3.org/2000/svg" xmlns:xlink="http://www.w3.org/1999/xlink">
<g id="graph0" class="graph" transform="scale(1 1) rotate(0) translate(25.2 308.44)">
<title>Estados</title>
<polygon fill="white" stroke="none" points="-25.2,25.2 -25.2,-308.44 1197.27,-308.44 1197.27,25.2 -25.2,25.2"/>
<!-- Inicio -->
<g id="node1" class="node">
<title>Inicio</title>
<ellipse fill="black" stroke="black" cx="6.48" cy="-95.12" rx="6.48" ry="6.48"/>
</g>
<!-- PRECANDIDATO -->
<g id="node2" class="node">
<title>PRECANDIDATO</title>
<path fill="none" stroke="black" d="M285.63,-116.24C285.63,-116.24 150.82,-116.24 150.82,-116.24 144.82,-116.24 138.82,-110.24 138.82,-104.24 138.82,-104.24 138.82,-86 138.82,-86 138.82,-80 144.82,-74 150.82,-74 150.82,-74 285.63,-74 285.63,-74 291.63,-74 297.63,-80 297.63,-86 297.63,-86 297.63,-104.24 297.63,-104.24 297.63,-110.24 291.63,-116.24 285.63,-116.24"/>
<text xml:space="preserve" text-anchor="middle" x="218.22" y="-90.32" font-family="Arial" font-size="16.00">PRECANDIDATO</text>
</g>
<!-- Inicio&#45;&gt;PRECANDIDATO -->
<g id="edge1" class="edge">
<title>Inicio&#45;&gt;PRECANDIDATO</title>
<path fill="none" stroke="black" d="M13.09,-95.12C29.7,-95.12 80.39,-95.12 127.1,-95.12"/>
<polygon fill="black" stroke="black" points="127.04,-98.62 137.04,-95.12 127.04,-91.62 127.04,-98.62"/>
<text xml:space="preserve" text-anchor="middle" x="75.89" y="-99.02" font-family="Arial" font-size="13.00">cadastro</text>
</g>
<!-- ELEGIVEL -->
<g id="node3" class="node">
<title>ELEGIVEL</title>
<path fill="none" stroke="black" d="M830.72,-263.24C830.72,-263.24 745.66,-263.24 745.66,-263.24 739.66,-263.24 733.66,-257.24 733.66,-251.24 733.66,-251.24 733.66,-233 733.66,-233 733.66,-227 739.66,-221 745.66,-221 745.66,-221 830.72,-221 830.72,-221 836.72,-221 842.72,-227 842.72,-233 842.72,-233 842.72,-251.24 842.72,-251.24 842.72,-257.24 836.72,-263.24 830.72,-263.24"/>
<text xml:space="preserve" text-anchor="middle" x="788.19" y="-237.32" font-family="Arial" font-size="16.00">ELEGIVEL</text>
</g>
<!-- PRECANDIDATO&#45;&gt;ELEGIVEL -->
<g id="edge2" class="edge">
<title>PRECANDIDATO&#45;&gt;ELEGIVEL</title>
<path fill="none" stroke="black" d="M263.3,-116.65C333.22,-149.58 474.76,-211.23 602.44,-236.12 641.66,-243.77 686.44,-245.39 722.09,-245.05"/>
<polygon fill="black" stroke="black" points="721.87,-248.55 731.81,-244.9 721.76,-241.55 721.87,-248.55"/>
<text xml:space="preserve" text-anchor="middle" x="501.91" y="-230.7" font-family="Arial" font-size="13.00">aprovação</text>
</g>
<!-- INELEGIVEL -->
<g id="node4" class="node">
<title>INELEGIVEL</title>
<path fill="none" stroke="black" d="M552.44,-116.24C552.44,-116.24 451.38,-116.24 451.38,-116.24 445.38,-116.24 439.38,-110.24 439.38,-104.24 439.38,-104.24 439.38,-86 439.38,-86 439.38,-80 445.38,-74 451.38,-74 451.38,-74 552.44,-74 552.44,-74 558.44,-74 564.44,-80 564.44,-86 564.44,-86 564.44,-104.24 564.44,-104.24 564.44,-110.24 558.44,-116.24 552.44,-116.24"/>
<text xml:space="preserve" text-anchor="middle" x="501.91" y="-90.32" font-family="Arial" font-size="16.00">INELEGIVEL</text>
</g>
<!-- PRECANDIDATO&#45;&gt;INELEGIVEL -->
<g id="edge3" class="edge">
<title>PRECANDIDATO&#45;&gt;INELEGIVEL</title>
<path fill="none" stroke="black" d="M298.06,-95.12C338.65,-95.12 387.83,-95.12 427.59,-95.12"/>
<polygon fill="black" stroke="black" points="427.56,-98.62 437.56,-95.12 427.56,-91.62 427.56,-98.62"/>
<text xml:space="preserve" text-anchor="middle" x="368.5" y="-99.02" font-family="Arial" font-size="13.00">reprovação</text>
</g>
<!-- REMOVIDO -->
<g id="node5" class="node">
<title>REMOVIDO</title>
<path fill="none" stroke="black" d="M1157.84,-42.24C1157.84,-42.24 1063.04,-42.24 1063.04,-42.24 1057.04,-42.24 1051.04,-36.24 1051.04,-30.24 1051.04,-30.24 1051.04,-12 1051.04,-12 1051.04,-6 1057.04,0 1063.04,0 1063.04,0 1157.84,0 1157.84,0 1163.84,0 1169.84,-6 1169.84,-12 1169.84,-12 1169.84,-30.24 1169.84,-30.24 1169.84,-36.24 1163.84,-42.24 1157.84,-42.24"/>
<text xml:space="preserve" text-anchor="middle" x="1110.44" y="-16.32" font-family="Arial" font-size="16.00">REMOVIDO</text>
</g>
<!-- PRECANDIDATO&#45;&gt;REMOVIDO -->
<g id="edge4" class="edge">
<title>PRECANDIDATO&#45;&gt;REMOVIDO</title>
<path fill="none" stroke="black" d="M297.97,-75.78C339.74,-66.25 392.07,-55.48 439.38,-49.12 656.81,-19.91 917.16,-18.53 1039.47,-19.84"/>
<polygon fill="black" stroke="black" points="1039.31,-23.34 1049.35,-19.95 1039.39,-16.34 1039.31,-23.34"/>
<text xml:space="preserve" text-anchor="middle" x="649.05" y="-35.9" font-family="Arial" font-size="13.00">remoção</text>
</g>
<!-- ELEGIVEL&#45;&gt;INELEGIVEL -->
<g id="edge6" class="edge">
<title>ELEGIVEL&#45;&gt;INELEGIVEL</title>
<path fill="none" stroke="black" d="M776.96,-220.75C762.77,-193.63 734.41,-147.65 695.66,-124.92 659.65,-103.79 613.6,-96.1 575.54,-93.81"/>
<polygon fill="black" stroke="black" points="576.19,-90.34 566.03,-93.35 575.85,-97.33 576.19,-90.34"/>
<text xml:space="preserve" text-anchor="middle" x="649.05" y="-144.42" font-family="Arial" font-size="13.00">perda de</text>
<text xml:space="preserve" text-anchor="middle" x="649.05" y="-128.82" font-family="Arial" font-size="13.00">elegibilidade</text>
</g>
<!-- ELEITO -->
<g id="node6" class="node">
<title>ELEITO</title>
<path fill="none" stroke="black" d="M1142.73,-283.24C1142.73,-283.24 1078.14,-283.24 1078.14,-283.24 1072.14,-283.24 1066.14,-277.24 1066.14,-271.24 1066.14,-271.24 1066.14,-253 1066.14,-253 1066.14,-247 1072.14,-241 1078.14,-241 1078.14,-241 1142.73,-241 1142.73,-241 1148.73,-241 1154.73,-247 1154.73,-253 1154.73,-253 1154.73,-271.24 1154.73,-271.24 1154.73,-277.24 1148.73,-283.24 1142.73,-283.24"/>
<text xml:space="preserve" text-anchor="middle" x="1110.44" y="-257.32" font-family="Arial" font-size="16.00">ELEITO</text>
</g>
<!-- ELEGIVEL&#45;&gt;ELEITO -->
<g id="edge8" class="edge">
<title>ELEGIVEL&#45;&gt;ELEITO</title>
<path fill="none" stroke="black" d="M843.15,-245.49C901.98,-249.16 995.59,-255.01 1054.72,-258.7"/>
<polygon fill="black" stroke="black" points="1054.35,-262.19 1064.55,-259.32 1054.79,-255.2 1054.35,-262.19"/>
<text xml:space="preserve" text-anchor="middle" x="945.76" y="-259.55" font-family="Arial" font-size="13.00">vencedor da apuração</text>
</g>
<!-- NAOELEITO -->
<g id="node7" class="node">
<title>NAOELEITO</title>
<path fill="none" stroke="black" d="M1160.07,-191.24C1160.07,-191.24 1060.81,-191.24 1060.81,-191.24 1054.81,-191.24 1048.81,-185.24 1048.81,-179.24 1048.81,-179.24 1048.81,-161 1048.81,-161 1048.81,-155 1054.81,-149 1060.81,-149 1060.81,-149 1160.07,-149 1160.07,-149 1166.07,-149 1172.07,-155 1172.07,-161 1172.07,-161 1172.07,-179.24 1172.07,-179.24 1172.07,-185.24 1166.07,-191.24 1160.07,-191.24"/>
<text xml:space="preserve" text-anchor="middle" x="1110.44" y="-165.32" font-family="Arial" font-size="16.00">NAOELEITO</text>
</g>
<!-- ELEGIVEL&#45;&gt;NAOELEITO -->
<g id="edge9" class="edge">
<title>ELEGIVEL&#45;&gt;NAOELEITO</title>
<path fill="none" stroke="black" d="M842.88,-229.31C855.3,-226.38 868.46,-223.32 880.72,-220.52 933.16,-208.55 992.48,-195.5 1037.56,-185.67"/>
<polygon fill="black" stroke="black" points="1038.2,-189.11 1047.23,-183.57 1036.71,-182.27 1038.2,-189.11"/>
<text xml:space="preserve" text-anchor="middle" x="945.76" y="-224.42" font-family="Arial" font-size="13.00">demais candidatos</text>
</g>
<!-- INELEGIVEL&#45;&gt;ELEGIVEL -->
<g id="edge5" class="edge">
<title>INELEGIVEL&#45;&gt;ELEGIVEL</title>
<path fill="none" stroke="black" d="M528.31,-116.54C547.73,-132.21 575.65,-153.24 602.44,-168.12 640.79,-189.42 686.55,-207.79 722.93,-220.9"/>
<polygon fill="black" stroke="black" points="721.39,-224.07 731.98,-224.12 723.73,-217.48 721.39,-224.07"/>
<text xml:space="preserve" text-anchor="middle" x="649.05" y="-212.88" font-family="Arial" font-size="13.00">nova aprovação</text>
</g>
<!-- INELEGIVEL&#45;&gt;REMOVIDO -->
<g id="edge7" class="edge">
<title>INELEGIVEL&#45;&gt;REMOVIDO</title>
<path fill="none" stroke="black" d="M564.69,-87.58C678.47,-73.7 920.41,-44.18 1039.81,-29.61"/>
<polygon fill="black" stroke="black" points="1039.97,-33.12 1049.48,-28.44 1039.12,-26.17 1039.97,-33.12"/>
<text xml:space="preserve" text-anchor="middle" x="788.19" y="-70.58" font-family="Arial" font-size="13.00">remoção</text>
</g>
</g>
</svg>
